<?xml version="1.0" standalone="no"?>
<!DOCTYPE svg PUBLIC "-//W3C//DTD SVG 20010904//EN"
 "http://www.w3.org/TR/2001/REC-SVG-20010904/DTD/svg10.dtd">
<svg version="1.0" xmlns="http://www.w3.org/2000/svg"
 width="265.000000pt" height="115.000000pt" viewBox="0 0 265.000000 115.000000"
 preserveAspectRatio="xMidYMid meet">

<g transform="translate(0.000000,115.000000) scale(0.100000,-0.100000)"
fill="#000000" stroke="none">
<path d="M445 1085 c-133 -32 -281 -149 -337 -265 -102 -213 -66 -432 97 -595
78 -79 160 -124 262 -145 67 -14 180 -9 226 9 27 10 27 12 27 101 0 49 -2 90
-4 90 -2 0 -23 -7 -46 -15 -57 -20 -163 -19 -225 2 -35 13 -69 37 -116 83 -79
78 -99 127 -99 239 0 63 5 86 29 136 95 198 334 257 508 125 26 -19 60 -56 76
-81 51 -83 57 -128 57 -426 l0 -273 86 0 85 0 -3 317 c-3 305 -4 320 -27 376
-98 247 -350 383 -596 322z"/>
<path d="M1245 1081 c-131 -38 -239 -119 -195 -146 6 -4 24 -33 40 -66 l30
-59 50 38 c139 105 317 96 438 -21 38 -37 72 -85 72 -102 0 -3 -120 -5 -266
-5 l-266 0 6 -22 c3 -13 6 -51 6 -86 l0 -62 368 2 367 3 -4 45 c-2 25 -12 78
-22 118 -69 270 -360 440 -624 363z"/>
<path d="M1880 971 c0 -63 3 -80 16 -85 9 -3 113 -6 231 -6 l215 0 -44 -52
c-152 -178 -248 -444 -248 -686 l0 -73 83 3 82 3 11 115 c22 216 58 326 154
465 35 51 127 138 168 159 l32 17 0 109 0 110 -350 0 -350 0 0 -79z"/>
<path d="M1601 336 c-18 -19 -60 -46 -93 -61 -53 -24 -70 -27 -142 -23 -65 2
-93 9 -135 31 -29 15 -57 27 -62 27 -6 0 -9 -41 -7 -97 l3 -98 55 -19 c168
-57 363 -15 497 107 47 44 123 143 123 162 0 3 -46 5 -103 5 l-103 0 -33 -34z"/>
</g>
</svg>
