<svg version="1.2" xmlns="http://www.w3.org/2000/svg" viewBox="0 0 104 34" width="104" height="34">
	<title>amazon-ar21 (1)-svg</title>
	<style>
		.s0 { fill: #2f2f2f } 
		.s1 { fill: #221f1f } 
	</style>
	<path fill-rule="evenodd" class="s0" d="m64 25.7c-5.8 4.3-14.2 6.6-21.4 6.6-10.2 0-19.4-3.8-26.3-10-0.5-0.5-0.1-1.2 0.6-0.8 7.5 4.3 16.7 6.9 26.3 6.9 6.4 0 13.5-1.3 20-4.1 1-0.4 1.8 0.7 0.8 1.4zm2.5-2.8c-0.8-0.9-4.9-0.4-6.8-0.2-0.6 0.1-0.7-0.4-0.2-0.8 3.3-2.3 8.8-1.6 9.4-0.9 0.7 0.8-0.1 6.3-3.3 8.9-0.4 0.4-0.9 0.2-0.7-0.3 0.7-1.8 2.3-5.7 1.6-6.7z"/>
	<path fill-rule="evenodd" class="s1" d="m59.8 5.4v-2.2q0-0.2 0-0.3 0.1-0.1 0.2-0.2 0 0 0.2-0.1 0.1 0 0.2 0h10.2c0.3 0 0.5 0.2 0.5 0.6v1.9c0 0.3-0.2 0.8-0.7 1.4l-5.3 7.6c2-0.1 4 0.2 5.8 1.2 0.4 0.2 0.5 0.6 0.5 0.9v2.4c0 0.3-0.3 0.7-0.7 0.5-3.1-1.6-7.3-1.8-10.8 0-0.3 0.2-0.7-0.1-0.7-0.5v-2.3c0-0.4 0-1 0.4-1.5l6.1-8.8h-5.3c-0.3 0-0.6-0.2-0.6-0.6zm-37.1 14.2h-3.1c-0.3 0-0.5-0.2-0.6-0.5v-15.9c0-0.3 0.3-0.6 0.6-0.6h2.9c0.3 0 0.6 0.3 0.6 0.6v2c0.8-2 2.2-2.9 4.1-2.9 2 0 3.2 0.9 4 2.9 0.8-2 2.5-2.9 4.3-2.9 1.3 0 2.7 0.5 3.6 1.7 1 1.4 0.8 3.3 0.8 5v10c0 0.3-0.3 0.6-0.6 0.6h-3.1c-0.3 0-0.6-0.3-0.6-0.6v-8.4c0-0.7 0.1-2.3-0.1-3-0.2-1-0.9-1.3-1.8-1.3-0.7 0-1.5 0.5-1.8 1.3-0.4 0.8-0.3 2.1-0.3 3v8.4c0 0.3-0.3 0.6-0.6 0.6h-3.1c-0.3 0-0.6-0.3-0.6-0.6v-8.4c0-1.8 0.3-4.4-1.9-4.4-2.2 0-2.1 2.6-2.1 4.4v8.4c0 0.3-0.3 0.6-0.6 0.6zm57.2-17.3c4.6 0 7.1 3.9 7.1 8.9 0 4.9-2.8 8.7-7.1 8.7-4.5 0-7-3.9-7-8.8 0-5 2.5-8.8 7-8.8zm0 3.2c-2.3 0-2.4 3.1-2.4 5.1 0 1.9-0.1 6 2.4 6 2.4 0 2.5-3.3 2.5-5.3 0-1.4-0.1-3-0.5-4.3-0.3-1.1-1-1.5-2-1.5zm13 14.1h-3.1c-0.3 0-0.5-0.3-0.5-0.6v-15.9c0-0.3 0.3-0.5 0.6-0.5h2.8c0.3 0 0.5 0.2 0.6 0.4v2.5c0.9-2.2 2.1-3.2 4.3-3.2 1.4 0 2.7 0.5 3.6 1.8 0.8 1.3 0.8 3.4 0.8 5v10c-0.1 0.3-0.3 0.5-0.6 0.5h-3.1c-0.3 0-0.5-0.2-0.6-0.5v-8.6c0-1.8 0.2-4.3-1.9-4.3-0.8 0-1.4 0.5-1.8 1.2-0.4 1-0.5 2-0.5 3.1v8.5c0 0.3-0.3 0.6-0.6 0.6zm-38.1-0.1c-0.2 0.2-0.5 0.2-0.7 0.1-1.1-0.8-1.3-1.2-1.8-2.1-1.7 1.8-2.9 2.3-5.1 2.3-2.6 0-4.7-1.6-4.7-4.8 0-2.5 1.4-4.3 3.3-5.1 1.7-0.7 4.1-0.9 5.9-1.1v-0.4c0-0.7 0-1.6-0.4-2.2-0.4-0.6-1.1-0.8-1.8-0.8-1.1 0-2.2 0.6-2.4 1.8-0.1 0.3-0.3 0.6-0.6 0.6l-3-0.3c-0.2-0.1-0.5-0.3-0.4-0.7 0.6-3.6 3.9-4.7 6.9-4.7 1.5 0 3.5 0.4 4.6 1.5 1.5 1.5 1.4 3.3 1.4 5.4v4.8c0 1.4 0.6 2.1 1.2 2.9 0.2 0.2 0.2 0.6 0 0.8l-2.4 2.1v-0.1zm-3.1-8.2c-2.3 0-4.6 0.5-4.6 3.1 0 1.4 0.7 2.3 1.8 2.3 0.9 0 1.7-0.5 2.2-1.4 0.6-1.1 0.6-2.1 0.6-3.3 0 0 0-0.7 0-0.7zm-37.5 8.3c-0.2 0.1-0.5 0.1-0.7 0-1-0.8-1.2-1.2-1.8-2-1.7 1.7-2.9 2.2-5.1 2.2-2.6 0-4.6-1.6-4.6-4.8 0-2.5 1.3-4.2 3.3-5.1 1.7-0.7 4-0.8 5.8-1v-0.4c0-0.8 0.1-1.6-0.4-2.3-0.4-0.6-1.1-0.8-1.7-0.8-1.2 0-2.2 0.6-2.5 1.9-0.1 0.3-0.3 0.5-0.6 0.5l-3-0.3c-0.2 0-0.5-0.2-0.4-0.6 0.7-3.7 4-4.8 6.9-4.8 1.5 0 3.5 0.4 4.7 1.6 1.5 1.4 1.3 3.3 1.3 5.3v4.8c0 1.5 0.6 2.1 1.2 2.9 0.2 0.3 0.2 0.6 0 0.8l-2.4 2.1q0 0 0 0zm-3.1-8.3c-2.2 0-4.6 0.5-4.6 3.2 0 1.3 0.7 2.2 1.9 2.2 0.8 0 1.6-0.5 2.1-1.4 0.6-1.1 0.6-2.1 0.6-3.3 0 0 0-0.7 0-0.7z"/>
</svg>