<?xml version="1.0" standalone="no"?>
<!DOCTYPE svg PUBLIC "-//W3C//DTD SVG 20010904//EN"
 "http://www.w3.org/TR/2001/REC-SVG-20010904/DTD/svg10.dtd">
<svg version="1.0" xmlns="http://www.w3.org/2000/svg"
 width="281.000000pt" height="122.000000pt" viewBox="0 0 281.000000 122.000000"
 preserveAspectRatio="xMidYMid meet">

<g transform="translate(0.000000,122.000000) scale(0.100000,-0.100000)"
fill="#000000" stroke="none">
<path d="M117 1146 c-58 -26 -62 -41 -65 -273 -2 -117 0 -213 5 -213 4 0 19
21 33 48 14 26 59 81 100 122 87 87 194 146 320 176 146 34 280 9 280 -54 0
-35 -72 -112 -138 -147 -26 -14 -54 -29 -62 -34 -44 -28 -277 -121 -299 -121
-3 0 49 28 117 61 141 70 221 135 241 197 21 62 5 82 -65 82 -64 0 -108 -20
-194 -89 -56 -44 -160 -166 -160 -187 0 -6 -7 -25 -15 -40 -24 -47 -19 -117
11 -153 39 -47 86 -57 177 -38 128 26 284 118 384 226 l43 46 0 203 0 202
-342 -1 c-248 0 -351 -4 -371 -13z"/>
<path d="M1073 1150 c-23 -9 -53 -57 -53 -85 0 -8 -7 -15 -15 -15 -10 0 -15
-11 -15 -35 0 -24 5 -35 15 -35 12 0 15 -19 15 -110 l0 -110 35 0 35 0 1 98
c1 53 1 103 0 110 -1 7 11 12 34 12 33 0 35 2 35 35 0 33 -2 35 -35 35 -52 0
-40 34 15 42 20 2 26 9 28 36 3 31 2 32 -35 31 -21 0 -48 -4 -60 -9z"/>
<path d="M1188 1115 c-8 -19 -8 -28 2 -40 24 -29 80 -15 80 19 0 49 -62 65
-82 21z"/>
<path d="M1190 905 l0 -145 35 0 35 0 0 145 0 145 -35 0 -35 0 0 -145z"/>
<path d="M1280 904 l0 -145 33 3 32 3 3 108 3 107 53 0 c77 0 86 -14 86 -128
l0 -92 35 0 35 0 0 97 c0 170 -22 193 -181 193 l-99 0 0 -146z"/>
<path d="M1603 1027 c-16 -16 -23 -35 -23 -60 0 -20 2 -37 4 -37 20 0 66 25
66 36 0 11 16 14 66 14 36 0 63 -4 60 -9 -3 -5 -36 -14 -73 -21 -108 -18 -123
-30 -123 -102 0 -42 3 -48 35 -68 31 -19 47 -22 116 -18 74 3 83 6 105 31 21
25 24 38 24 118 0 82 -2 92 -25 114 -22 23 -31 25 -117 24 -82 0 -96 -3 -115
-22z m187 -156 c0 -26 -6 -29 -75 -32 -50 -2 -60 0 -63 14 -3 13 4 17 30 18
18 1 44 5 58 9 40 13 50 11 50 -9z"/>
<path d="M1880 905 l0 -145 35 0 35 0 0 110 0 110 53 0 c78 0 87 -14 87 -128
l0 -92 35 0 35 0 0 97 c0 171 -21 193 -179 193 l-101 0 0 -145z"/>
<path d="M2203 1027 c-21 -21 -23 -32 -23 -122 l0 -100 33 -22 c27 -19 47 -23
111 -23 72 0 79 2 107 29 16 16 29 38 29 48 0 10 3 29 6 43 3 15 2 20 -3 13
-4 -6 -24 -13 -43 -15 -26 -2 -34 -7 -32 -20 2 -13 -9 -17 -64 -20 -36 -1 -68
-1 -70 1 -2 2 -4 35 -4 73 l0 68 65 0 c61 0 66 -2 75 -25 7 -19 17 -25 40 -25
28 0 30 3 30 35 0 25 -8 44 -25 60 -22 23 -31 25 -117 24 -82 0 -96 -3 -115
-22z"/>
<path d="M2503 1027 c-19 -19 -23 -34 -25 -117 l-3 -95 34 -27 c30 -25 42 -28
110 -28 95 0 129 22 138 86 l5 42 -36 -12 c-20 -6 -36 -17 -36 -23 0 -9 -21
-13 -72 -12 l-73 1 50 13 c28 8 67 17 88 20 53 8 77 36 77 85 0 30 -7 47 -25
65 -22 23 -31 25 -117 24 -82 0 -96 -3 -115 -22z m184 -62 c2 -6 -28 -17 -67
-26 l-70 -16 0 29 0 29 67 -3 c36 -2 68 -8 70 -13z"/>
<path d="M1035 698 c-3 -8 -4 -68 -3 -134 3 -115 4 -119 26 -122 l23 -3 -3
133 c-3 117 -5 133 -21 136 -9 2 -19 -3 -22 -10z"/>
<path d="M1870 660 c0 -11 -4 -20 -10 -20 -5 0 -10 -9 -10 -20 0 -11 5 -20 10
-20 6 0 10 -28 10 -65 0 -52 4 -69 21 -86 26 -26 63 -22 67 8 3 17 -1 20 -17
16 -17 -4 -20 1 -23 61 -3 63 -2 66 20 66 27 0 30 30 3 37 -11 3 -21 13 -24
24 -7 26 -47 26 -47 -1z"/>
<path d="M2690 664 c0 -8 -7 -22 -15 -30 -8 -9 -15 -20 -15 -25 0 -5 7 -9 15
-9 12 0 15 -14 15 -70 0 -63 2 -71 25 -86 31 -20 59 -15 63 14 3 18 -1 22 -20
20 -22 -3 -23 1 -26 60 -3 61 -3 62 23 62 33 0 31 33 -3 38 -14 2 -22 10 -22
23 0 12 -7 19 -20 19 -12 0 -20 -7 -20 -16z"/>
<path d="M1129 616 c-8 -16 -9 -51 -4 -100 6 -66 9 -76 26 -76 17 0 19 8 19
81 l0 80 33 -3 32 -3 3 -77 c3 -70 5 -78 22 -78 18 0 20 7 20 84 0 76 -2 86
-22 100 -13 9 -43 16 -70 16 -42 0 -50 -3 -59 -24z"/>
<path d="M1302 608 c2 -18 6 -35 10 -39 4 -3 19 -32 32 -65 31 -75 59 -85 82
-27 8 21 21 52 29 68 7 17 16 45 20 63 6 31 5 33 -15 30 -18 -2 -27 -17 -43
-65 -11 -35 -23 -60 -26 -57 -3 3 -15 31 -26 62 -16 44 -26 58 -44 60 -20 3
-22 0 -19 -30z"/>
<path d="M1526 619 c-23 -18 -26 -27 -26 -84 0 -57 3 -66 26 -84 32 -25 64
-27 104 -6 50 26 30 56 -24 35 -34 -12 -66 2 -66 30 0 18 7 20 61 20 l62 0 -6
38 c-11 67 -77 93 -131 51z m84 -34 c11 -13 7 -15 -30 -15 -37 0 -41 2 -30 15
7 8 20 15 30 15 10 0 23 -7 30 -15z"/>
<path d="M1706 624 c-19 -19 -21 -67 -3 -82 6 -6 24 -13 39 -17 37 -9 57 -33
37 -46 -8 -5 -22 -7 -31 -4 -10 3 -27 8 -39 11 -17 6 -20 3 -17 -16 7 -52 129
-46 142 7 9 35 -9 59 -59 78 -25 10 -45 24 -45 31 0 17 34 18 60 2 16 -10 22
-10 32 0 11 11 9 17 -11 33 -28 23 -84 25 -105 3z"/>
<path d="M2001 627 c-6 -6 -11 -46 -11 -99 0 -81 2 -88 20 -88 18 0 20 7 20
81 l0 80 33 -3 32 -3 3 -77 c2 -68 5 -78 21 -78 15 0 19 11 25 64 3 35 3 71 0
81 -6 14 -2 16 22 13 29 -3 29 -4 34 -78 5 -68 7 -75 28 -78 21 -3 22 -1 22
77 0 73 -2 81 -25 99 -22 17 -41 20 -119 21 -57 0 -98 -5 -105 -12z"/>
<path d="M2312 624 c-19 -13 -22 -24 -22 -84 0 -74 11 -95 57 -106 31 -8 93
19 93 41 0 18 -9 19 -45 5 -33 -12 -65 3 -65 30 0 18 7 20 55 20 l55 0 0 39
c0 46 -26 71 -75 71 -17 0 -41 -7 -53 -16z m86 -41 c2 -9 -8 -13 -32 -13 -34
0 -44 8 -29 24 11 11 56 2 61 -11z"/>
<path d="M2498 629 c-15 -8 -18 -25 -18 -99 0 -89 0 -90 25 -90 25 0 25 1 25
80 l0 80 30 0 29 0 3 -77 c3 -72 5 -78 26 -81 21 -3 22 -1 22 82 0 76 -2 86
-22 100 -25 18 -94 21 -120 5z"/>
<path d="M1055 365 c-23 -22 -25 -32 -25 -113 0 -80 2 -91 23 -110 18 -17 36
-22 75 -22 71 0 94 23 90 88 l-3 47 -42 3 c-38 3 -43 1 -43 -17 0 -14 6 -21
20 -21 16 0 20 -7 20 -30 0 -28 -2 -30 -40 -30 -49 0 -60 18 -60 95 0 31 5 65
10 76 13 24 57 25 81 3 19 -17 49 -13 49 6 0 5 -9 19 -20 30 -30 30 -103 28
-135 -5z"/>
<path d="M1262 312 c-9 -6 -12 -33 -10 -98 3 -84 4 -89 26 -92 21 -3 22 -1 22
77 l0 81 30 0 c23 0 30 4 30 20 0 17 -7 20 -42 20 -24 0 -49 -4 -56 -8z"/>
<path d="M1407 302 c-25 -27 -24 -143 1 -165 23 -21 91 -22 118 -3 16 12 19
27 19 84 0 44 -5 75 -14 85 -19 24 -102 23 -124 -1z m77 -18 c12 -5 16 -21 16
-66 l0 -59 -32 3 c-32 3 -33 5 -36 53 -3 38 1 52 14 62 21 15 18 15 38 7z"/>
<path d="M1584 305 c-13 -32 1 -143 20 -164 23 -25 116 -30 135 -7 8 9 11 45
9 98 -3 77 -4 83 -25 86 -22 3 -23 1 -23 -78 l0 -81 -32 3 -33 3 -3 78 c-3 69
-5 77 -23 77 -11 0 -22 -7 -25 -15z"/>
<path d="M1803 313 c-10 -3 -13 -40 -13 -134 0 -122 1 -129 20 -129 16 0 20 7
20 35 0 34 1 35 38 35 59 0 82 31 82 107 0 76 -16 93 -86 92 -27 0 -55 -3 -61
-6z m91 -39 c19 -18 21 -85 4 -102 -7 -7 -25 -12 -40 -12 -28 0 -28 1 -28 59
0 59 2 63 42 70 4 0 14 -6 22 -15z"/>
</g>
</svg>
