<svg version="1.2" xmlns="http://www.w3.org/2000/svg" viewBox="0 0 531 99" width="104" height="34">
	<title>Foundever_logo (1)-svg</title>
	<defs>
		<clipPath clipPathUnits="userSpaceOnUse" id="cp1">
			<path d="m0 0h531v99h-531z"/>
		</clipPath>
		<clipPath clipPathUnits="userSpaceOnUse" id="cp2">
			<path d="m0 0h531v99h-531z"/>
		</clipPath>
	</defs>
	<style>
		.s0 { fill: #2f2f2f } 
	</style>
	<g id="Clip-Path" clip-path="url(#cp1)">
		<g>
			<g id="Clip-Path" clip-path="url(#cp2)">
				<g>
					<path class="s0" d="m142.3 32.3c0.6 0 1.4 0.1 1.9 0.2 1.2 0 2.3-0.4 3.2-1.2 0.8-0.9 1.3-2 1.3-3.2 0-2.3-1.6-4.1-3.6-4.4-1.6-0.3-3.2-0.4-5-0.4-4.2 0-7.4 1.1-9.7 3.4-2.4 2.4-3.6 6-3.6 10.7v2.6h-1.2c-2.5 0-4.5 2-4.5 4.5 0 2.5 2 4.4 4.5 4.4h1.2v28.9c0 2.8 2.4 5.2 5.2 5.2 2.9 0 5.3-2.4 5.3-5.2v-28.9h6.9c2.5 0 4.5-2 4.5-4.4 0-2.4-2-4.4-4.5-4.4h-7v-1.9c0-4 1.6-5.9 5.1-5.9"/>
					<path fill-rule="evenodd" class="s0" d="m172.3 38.9c12.8 0 22.8 9.7 22.8 22.2v0.1c0 12.5-10.2 22.3-22.9 22.3-12.7 0-22.7-9.7-22.7-22.1v-0.2c0-12.5 10-22.3 22.8-22.3m-12.3 22.3c0 7.3 5.2 13 12.3 13 7.1 0 12.3-5.4 12.3-12.8v-0.2c0-7.4-5.4-13-12.4-13-7.1 0-12.2 5.4-12.2 12.9z"/>
					<path class="s0" d="m234.8 39.3c-2.9 0-5.2 2.3-5.2 5.3v19.3c0 6.1-3.5 9.8-9 9.8-5.6 0-8.6-3.4-8.6-9.7v-19.4c0-3-2.3-5.3-5.3-5.3-2.9 0-5.2 2.3-5.2 5.3v22.3c0 10.2 5.9 16.5 15.4 16.5 5.2 0 9.3-2.1 12.7-6.5v0.8c0 2.9 2.3 5.2 5.2 5.2 3 0 5.3-2.3 5.3-5.2v-33.1c0-3-2.3-5.3-5.3-5.3z"/>
					<path class="s0" d="m272.4 38.9c-5.1 0-9.3 2.1-12.6 6.4v-0.7c0-3-2.3-5.3-5.3-5.3-3 0-5.2 2.3-5.2 5.3v33.1c0 3 2.3 5.2 5.2 5.2 2.9 0 5.3-2.2 5.3-5.2v-19.2c0-6.1 3.5-10 9-10 5.5 0 8.5 3.6 8.5 9.8v19.4c0 3 2.3 5.2 5.3 5.2 3 0 5.2-2.2 5.2-5.2v-22.3c0-10.2-5.9-16.5-15.4-16.5z"/>
					<path fill-rule="evenodd" class="s0" d="m338.6 28.5v49.3c0 2.9-2.2 5.2-5.2 5.2-2.9 0-5.2-2.3-5.2-5.2v-1.3c-3.7 4.7-8.3 6.9-13.9 6.9-5.1 0-10.1-2.1-13.7-5.8-4-4.1-6.2-9.7-6.2-16.4v-0.1c0-14.6 10-22.2 19.9-22.2 5.6 0 10.1 2.1 13.9 6.6v-17c0-2.9 2.2-5.2 5.2-5.2 2.9 0 5.2 2.3 5.2 5.2zm-22 19.6c-6.8 0-11.6 5.3-11.6 13v0.1c0 7.4 5 13 11.6 13 7.3 0 11.7-6.6 11.7-13v-0.1c0-7.4-4.8-13-11.7-13z"/>
					<path fill-rule="evenodd" class="s0" d="m386.9 60c0 2.8-2.2 5-5 5h-25.7c1.1 6 5.5 9.8 11.5 9.8 3.6 0 6.8-1.2 9.7-3.6 0.7-0.6 1.5-1 2.7-1 2.4 0 4.3 1.9 4.3 4.4 0 1.2-0.5 2.3-1.4 3.2-4.3 3.9-9.3 5.7-15.4 5.7-12.8 0-22-9.3-22-22.2v-0.2c0-12.6 9-22.2 20.9-22.2 13.3 0 20.4 10.8 20.4 21.1zm-10.3-2.2c-0.7-5-3.6-10.2-10.1-10.2-5.4 0-9.4 4-10.4 10.2z"/>
					<path class="s0" d="m425.4 39.3q-3.4 0-4.9 3.6l-10.6 26.9-10.4-26.8c-1-2.5-2.7-3.7-5.1-3.7-2.8 0-5.2 2.3-5.2 5 0 0.9 0.2 1.6 0.4 2.3l14.1 32.3c1.3 2.9 3.3 4.4 5.9 4.4h0.5c2.5 0 4.5-1.5 5.9-4.4l13.9-32.1c0.2-0.4 0.6-1.5 0.6-2.5 0-2.8-2.2-5-5.1-5z"/>
					<path fill-rule="evenodd" class="s0" d="m474 60c0 2.8-2.2 5-5 5h-25.7c1.1 6 5.5 9.8 11.5 9.8 3.6 0 6.8-1.2 9.7-3.6 0.7-0.6 1.5-1 2.7-1 2.4 0 4.2 1.9 4.2 4.4 0 1.2-0.5 2.3-1.3 3.2-4.3 3.9-9.3 5.7-15.4 5.7-12.8 0-22-9.3-22-22.2v-0.2c0-12.6 9-22.2 20.9-22.2 13.3 0 20.4 10.8 20.4 21.1zm-10.3-2.2c-0.7-5-3.6-10.2-10.1-10.2-5.4 0-9.4 4-10.4 10.2z"/>
					<path class="s0" d="m501.6 39.2c-3.7 0-7.6 3-10.1 7.7v-2.3c0-3-2.3-5.3-5.3-5.3-2.9 0-5.2 2.3-5.2 5.3v33.1c0 3 2.3 5.2 5.2 5.2 2.9 0 5.3-2.3 5.3-5.2v-12.3c0-9.1 4-14.7 11.1-16 2.6-0.4 4.2-2.4 4.2-5 0-3.2-2-5.2-5.2-5.2z"/>
					<path class="s0" d="m516.7 30.2h-1.7c-0.4 0-0.8-0.3-0.8-0.8 0-0.4 0.4-0.7 0.8-0.7h5.1c0.4 0 0.7 0.3 0.7 0.8 0 0.4-0.3 0.7-0.7 0.7h-1.7v5.4c0 0.5-0.4 0.9-0.9 0.9-0.4 0-0.8-0.4-0.8-0.9v-5.4z"/>
					<path class="s0" d="m522.5 29.4c0-0.4 0.3-0.8 0.8-0.8h0.2c0.4 0 0.6 0.2 0.8 0.4l2 3.3 2-3.3c0.2-0.3 0.4-0.4 0.8-0.4h0.2c0.4 0 0.8 0.4 0.8 0.8v6.2c0 0.5-0.4 0.9-0.8 0.9-0.5 0-0.8-0.4-0.8-0.9v-3.9l-1.5 2.3c-0.2 0.2-0.4 0.4-0.7 0.4-0.3 0-0.5-0.1-0.7-0.4l-1.5-2.3v3.9c0 0.5-0.4 0.9-0.8 0.9-0.5 0-0.8-0.4-0.8-0.9v-6.2z"/>
					<path fill-rule="evenodd" class="s0" d="m37.2 75.9c-3.8 0-7.4-1.5-10.1-4.2-2.8-2.7-4.2-6.3-4.2-10.1v-27.6c0-6.2 4.9-11.1 11-11.1h27.6c3.9 0 7.5 1.5 10.2 4.2 2.7 2.7 4.2 6.3 4.2 10.1 0 3.9-1.5 7.5-4.2 10.2l-24.3 24.3c-2.8 2.7-6.4 4.2-10.2 4.2m-3.3-47.8c-3.2 0-5.8 2.6-5.8 5.8v27.6c0 2.5 0.9 4.8 2.6 6.5 1.8 1.7 4.1 2.7 6.5 2.7 2.4 0 4.7-1 6.5-2.7l24.3-24.3c1.7-1.8 2.7-4.1 2.7-6.5 0-2.4-1-4.7-2.7-6.5-1.7-1.7-4-2.7-6.5-2.7h-27.6z"/>
					<path fill-rule="evenodd" class="s0" d="m14 44.1c-1.4 0-2.6-1.1-2.6-2.6v-7.5c0-12.5 10.1-22.6 22.6-22.6h27.2c3.3 0 6.6 0.7 9.8 1.9 1.3 0.5 2 2 1.4 3.3-0.5 1.4-2 2-3.3 1.5-2.5-1-5.2-1.5-7.9-1.5h-27.2c-9.6 0-17.4 7.8-17.4 17.4v7.5c0 1.5-1.1 2.6-2.6 2.6zm23.3 54.7q-3.8 0-7.6-0.8c-4.7-0.9-9.2-2.8-13.1-5.4-0.5-0.4-1-0.8-1.4-1.1q-0.3-0.3-0.7-0.6c-1.1-0.9-1.3-2.5-0.4-3.6 0.9-1.2 2.5-1.4 3.7-0.5q0.4 0.4 0.8 0.7c0.3 0.3 0.6 0.5 0.9 0.8 3.4 2.2 7.2 3.9 11.2 4.6 10.8 2.2 21.5-1 29.2-8.7l23.6-23.7c6.3-6.2 9.8-14.2 10.1-22.4 0.2-9.3-3.4-17.9-10.1-24.2-6-5.6-14.1-8.7-22.9-8.7h-6.7c-1.4 0-2.6-1.2-2.6-2.6 0-1.4 1.2-2.6 2.6-2.6h6.7c10.1 0 19.5 3.6 26.4 10.1 7.9 7.4 12 17.3 11.8 28.1-0.3 9.6-4.4 18.8-11.6 26l-23.7 23.7c-7.1 7.1-16.4 10.9-26.2 10.9zm-30.2-17.6c-0.9 0-1.8-0.5-2.3-1.3q-0.4-0.8-0.8-1.5-1.5-2.9-2.4-6c-0.7-2.1-1-4.5-1.1-7.1l-0.5-10.9v-20.5c0-18.7 15.2-33.9 33.9-33.9h6.4c1.4 0 2.6 1.1 2.6 2.6 0 1.4-1.2 2.6-2.6 2.6h-6.4c-15.8 0-28.7 12.9-28.7 28.7v20.4l0.4 10.8c0.1 2.2 0.4 4.1 1 5.8q0.8 2.7 2 5.1 0.4 0.7 0.7 1.3c0.7 1.3 0.3 2.9-1 3.6q-0.6 0.3-1.2 0.3zm30.1 6.1c-6.9 0-13.4-2.6-18.2-7.5-4.9-4.9-7.6-11.3-7.6-18.2v-6.5c0-1.4 1.2-2.6 2.6-2.6 1.5 0 2.6 1.2 2.6 2.6v6.5c0 5.5 2.2 10.6 6.1 14.5 3.8 3.9 9 6 14.5 6 5.5 0 10.7-2.1 14.6-6l6.7-6.7c1-1 2.7-1 3.7 0 1 1 1 2.7 0 3.7l-6.8 6.7c-4.8 4.9-11.3 7.5-18.2 7.5zm32.7-23.2c-0.7 0-1.4-0.3-1.9-0.8-1-1.1-1-2.7 0.1-3.7l8-7.9c7-6.9 8-17.9 2.5-26-0.8-1.2-0.5-2.8 0.7-3.6 1.2-0.8 2.8-0.5 3.6 0.7 6.9 10.2 5.6 23.9-3.1 32.6l-8.1 7.9c-0.5 0.5-1.2 0.8-1.8 0.8z"/>
				</g>
			</g>
		</g>
	</g>
</svg>