<?xml version="1.0" standalone="no"?>
<!DOCTYPE svg PUBLIC "-//W3C//DTD SVG 20010904//EN"
 "http://www.w3.org/TR/2001/REC-SVG-20010904/DTD/svg10.dtd">
<svg version="1.0" xmlns="http://www.w3.org/2000/svg"
 width="64.000000pt" height="64.000000pt" viewBox="0 0 64.000000 64.000000"
 preserveAspectRatio="xMidYMid meet">

<g transform="translate(0.000000,64.000000) scale(0.100000,-0.100000)"
fill="#000000" stroke="none">
<path d="M210 615 c-7 -9 -29 -15 -51 -15 -46 0 -57 -15 -84 -107 -16 -54 -21
-63 -42 -63 -29 0 -29 -4 -2 -219 16 -132 25 -170 40 -186 18 -19 33 -20 249
-20 216 0 231 1 249 20 15 16 24 54 40 186 27 215 27 219 -2 219 -21 0 -26 9
-42 63 -27 92 -38 107 -84 107 -22 0 -44 6 -51 15 -10 11 -35 15 -110 15 -75
0 -100 -4 -110 -15z m188 -27 c-3 -9 -28 -13 -78 -13 -50 0 -75 4 -77 13 -4 9
16 12 77 12 61 0 81 -3 78 -12z m-172 -33 c38 -20 150 -20 188 0 15 8 43 15
62 15 32 0 34 -2 53 -62 10 -35 17 -66 14 -70 -6 -10 -440 -10 -446 0 -3 4 4
35 14 70 19 60 21 62 53 62 19 0 47 -7 62 -15z m374 -167 c0 -7 -9 -85 -20
-173 -16 -120 -25 -163 -37 -173 -24 -17 -422 -17 -446 1 -12 9 -21 52 -37
172 -11 88 -20 166 -20 173 0 9 63 12 280 12 217 0 280 -3 280 -12z"/>
<path d="M212 318 c-15 -15 -15 -51 0 -66 15 -15 51 -15 66 0 28 28 7 78 -33
78 -12 0 -26 -5 -33 -12z m48 -33 c0 -8 -7 -15 -15 -15 -8 0 -15 7 -15 15 0 8
7 15 15 15 8 0 15 -7 15 -15z"/>
<path d="M313 234 c-84 -91 -106 -124 -85 -124 13 0 186 187 190 206 7 31 -21
9 -105 -82z"/>
<path d="M362 188 c-15 -15 -15 -51 0 -66 15 -15 51 -15 66 0 28 28 7 78 -33
78 -12 0 -26 -5 -33 -12z m48 -33 c0 -8 -7 -15 -15 -15 -8 0 -15 7 -15 15 0 8
7 15 15 15 8 0 15 -7 15 -15z"/>
</g>
</svg>
