<svg version="1.2" xmlns="http://www.w3.org/2000/svg" viewBox="0 0 1010 127" width="104" height="34">
	<title>Sandoz-Logo (1)-svg</title>
	<defs>
		<clipPath clipPathUnits="userSpaceOnUse" id="cp1">
			<path d="m-129.81-228.4h1249.47v550h-1249.47z"/>
		</clipPath>
		<clipPath clipPathUnits="userSpaceOnUse" id="cp2">
			<path d="m-129.81-228.4h1249.47v550h-1249.47z"/>
		</clipPath>
	</defs>
	<style>
		.s0 { fill: #2f2f2f } 
	</style>
	<g>
		<g>
			<g id="Clip-Path" clip-path="url(#cp1)">
				<g>
					<g id="Clip-Path" clip-path="url(#cp2)">
						<path fill-rule="evenodd" class="s0" d="m50.3 121.7c-15.5 0-30.4-5.3-44.2-11.9l13.6-30.9c8.4 6 16.5 11.9 27.4 11.9 2.9 0 8.8-0.6 8.8-5.2 0-4.6-4.4-5.6-10.1-7.4-12.9-3.8-33.4-7.5-33.4-34.7 0-27.7 21.2-38.1 46-38.1 11.8 0 27.2 4.2 36.7 11.3l-12.1 27.8c0 0-9.8-8.8-20.7-8.8-6.1 0-9.9 1.8-9.9 5.6 0 3.9 6.1 5.4 9.8 6.6 12.9 3.9 34 8.2 34 35.4 0 27.8-20.7 38.4-45.9 38.4zm120.8-3.2l-3.2-14h-29.7l-4 14h-41.3l38.4-110.1h44.8l36.6 110.1zm-18.1-74.4l-9.6 34.4h19.1zm134.3 74.4l-33.1-53.6v53.6h-38.1v-110h38.1l33.1 53.9v-53.9h37.8v110zm93.2-0.3l-12.7 0.3h-30.2v-110h28.8l12.6 0.2c35.7 0 63.1 12.9 63.1 55.2 0 40-25.8 54.3-61.6 54.3zm1.1-76.7h-4.5v44.2h4.5c13.7 0 20.8-6.9 20.8-21.4 0-13.5-6.9-22.8-20.8-22.8zm124.4 80.2c-33.9 0-59.6-23.1-59.6-58.1 0-34.3 25-58.3 59.4-58.3 34.5 0 61 23.4 61 58.3 0 34.8-22.4 58.1-60.8 58.1zm0.4-79.8c-12.4 0-20 8.9-20 21.6 0 13 7.7 21.7 20 21.7 12.4 0 20.4-8.7 20.4-21.7 0-13-8.1-21.6-20.4-21.6zm119.8 43.7h40.9v32.9h-105.5l47.2-77h-37.1v-33h100.8zm99.3-43h-18.3l-4.7 13.5h-6.6l17-46.5h7.1l17.2 46.5h-7zm-16.6-5h14.9l-4.5-13c-1.5-4.5-2.8-9.9-2.8-9.9h-0.2c0 0-1.3 5.6-2.8 9.9zm53.3-28h6.7l19.1 29.2c2.3 3.5 5.2 9.3 5.2 9.3h0.2c0 0-0.4-6.1-0.4-10v-28.5h6v46.6h-6.7l-19-29.2c-2.2-3.5-5.3-9.2-5.3-9.2h-0.1c0 0 0.3 6.1 0.3 9.9v28.5h-6zm45 29.8c0-9.8 6.3-17.7 16.5-17.7 10.1 0 16.3 7.9 16.3 17.7 0 9.8-6.2 17.7-16.3 17.7-10.2 0-16.5-7.9-16.5-17.7zm26.9 0c0-7.3-3.6-13-10.5-13-6.9 0-10.4 5.7-10.4 13 0 7.3 3.5 12.9 10.4 12.9 6.9 0 10.5-5.6 10.5-12.9zm9-16.8h6.2l5.9 18.1c1.4 4.5 3.1 10.7 3.1 10.7h0.1c0 0 1.4-6.2 2.9-10.7l6-18.1h6.1l-12.1 33.6h-6.5zm33.5 24.7c0-7.8 5.8-9.5 14.5-10.6 4.9-0.6 8.1-1.4 8.1-4.8 0-3.6-2.6-5.9-7.2-5.9-5.3 0-7.9 2.5-8.1 6.5h-5.6c0.2-5.7 4.6-10.7 13.6-10.7 3.2 0 6 0.5 8.2 1.8 2.8 1.7 4.5 4.6 4.5 9.1v15.7c0 2.7 0.6 4.1 3.5 3.5h0.3v4.1c-0.8 0.2-1.8 0.5-3.1 0.5-3.6 0-5.4-1.7-6-5.3-2.2 3-5.6 5.7-11.3 5.7-6.4 0-11.4-3.2-11.4-9.6zm22.7-3.5v-5.5c-1.7 1-4.7 1.9-7.4 2.4-5.5 0.9-9.2 1.9-9.2 6.5 0 4.3 3.4 5.4 6.7 5.4 6.7 0 9.9-4.9 9.9-8.8zm15.1 12.4v-33.6h5.7v6h0.2c2.1-3.8 5.5-6.5 10-6.5 0.9 0 1.5 0.2 2.1 0.4v5.5h-0.2c-0.8-0.2-1.4-0.3-2.4-0.3-5.1 0-9.6 3.9-9.6 10.2v18.3c0 0-5.8 0-5.8 0zm35.8 0.2c-4.5 0-7.6-1.9-7.6-6.8v-22.5h-5.3v-4.5h5.3v-10.6h5.7v10.6h6.9v4.5h-6.9v21.2c0 2.4 1.3 3.1 3.4 3.1 1 0 2.4-0.2 3-0.4h0.2v4.9c-1.6 0.3-3.2 0.5-4.7 0.5zm18.8-43.3c0 2.1-1.5 3.6-3.6 3.6-2 0-3.5-1.5-3.5-3.6 0-2 1.5-3.5 3.5-3.5 2.1 0 3.6 1.5 3.6 3.5zm-6.4 9.5h5.8v33.6h-5.8zm12.9 23.4h5.9c0.7 4.9 4.4 6.5 9.3 6.5 5.3 0 7.5-2.3 7.5-5.3 0-3.7-2.8-4.7-8.7-5.9-6.6-1.3-12.5-2.7-12.5-10.1 0-5.8 4.5-9.4 12.3-9.4 8.4 0 12.6 4 13.4 9.8h-5.8c-0.5-3.5-2.9-5.4-7.7-5.4-4.6 0-6.5 2.1-6.5 4.7 0 3.5 3.2 4.2 8.9 5.3 6.7 1.3 12.5 2.8 12.5 10.6 0 6.9-5.7 10.4-13.6 10.4-9.2 0-14.5-4.4-15-11.2zm-276.1 26.2h17.2c13.9 0 20.8 9.5 20.8 23.4 0 13.9-7.3 23.1-21.2 23.1h-16.8c0 0 0-46.5 0-46.5zm16.5 41c10.5 0 14.9-6.9 14.9-17.6 0-10.7-3.9-17.8-14.5-17.8h-10.4v35.4zm36.1-37.5c0 2.1-1.5 3.6-3.5 3.6-2.1 0-3.6-1.5-3.6-3.6 0-2.1 1.5-3.6 3.6-3.6 2 0 3.5 1.5 3.5 3.6zm-6.4 9.4h5.8v33.6h-5.8zm11.4 0h6.2l5.8 18.2c1.5 4.5 3.1 10.7 3.1 10.7h0.1c0 0 1.5-6.2 3-10.7l6-18.2h6l-12.1 33.6h-6.4zm42.2-9.4c0 2.1-1.5 3.6-3.6 3.6-2 0-3.5-1.5-3.5-3.6 0-2.1 1.5-3.6 3.5-3.6 2.1 0 3.6 1.5 3.6 3.6zm-6.5 9.4h5.9v33.6h-5.9zm13 23.4h5.9c0.7 4.9 4.4 6.6 9.2 6.6 5.4 0 7.6-2.4 7.6-5.4 0-3.7-2.8-4.6-8.8-5.8-6.5-1.4-12.5-2.7-12.5-10.1 0-5.8 4.5-9.4 12.4-9.4 8.4 0 12.6 3.9 13.3 9.8h-5.8c-0.5-3.5-2.8-5.4-7.7-5.4-4.5 0-6.5 2.1-6.5 4.7 0 3.5 3.3 4.2 9 5.3 6.7 1.3 12.4 2.8 12.4 10.6 0 6.8-5.6 10.3-13.5 10.3-9.2 0-14.5-4.3-15-11.2zm42.5-32.8c0 2.1-1.5 3.6-3.6 3.6-2.1 0-3.6-1.5-3.6-3.6 0-2.1 1.5-3.6 3.6-3.6 2.1 0 3.6 1.5 3.6 3.6zm-6.5 9.4h5.9v33.6h-5.9zm13.3 16.9c0-9.8 6.3-17.7 16.5-17.7 10.1 0 16.3 7.9 16.3 17.7 0 9.8-6.2 17.7-16.3 17.7-10.2 0-16.5-7.9-16.5-17.7zm26.8 0c0-7.3-3.5-13-10.4-13-6.9 0-10.5 5.7-10.5 13 0 7.2 3.6 12.9 10.5 12.9 6.9 0 10.4-5.7 10.4-12.9zm19.2 16.8h-5.8v-33.7h5.8v4.8h0.2c2.4-3.4 5.7-5.6 10.6-5.6 7 0 11.3 4 11.3 11v23.5h-5.7v-22.8c0-4.3-2.8-6.8-7.4-6.8-5.2 0-9 3.7-9 9.1 0 0 0 20.5 0 20.5z"/>
					</g>
				</g>
			</g>
		</g>
	</g>
</svg>