<svg version="1.2" xmlns="http://www.w3.org/2000/svg" viewBox="0 0 652 300" width="104" height="34">
	<title>vxi-seeklogo (1)-svg</title>
	<style>
		.s0 { fill: #2f2f2f } 
	</style>
	<path class="s0" d="m503.5 148.6l-46.7-73.8h32.7l30.3 51 31-51h31.6l-46.6 74 50.3 79.4h-33.4l-33.5-55.1-33.8 55.1h-32.2z"/>
	<path fill-rule="evenodd" class="s0" d="m328 74.8h31l34.6 112.9h0.4l34.6-112.9h28.4l-50.8 154h-28zm269.7 0h28.6v153.4h-28.6z"/>
	<path fill-rule="evenodd" class="s0" d="m292.1 189.9c0.6 5.7 0.6 12.1 0 17.9-1.1 11.2-4.4 20.8-8.5 29.2-4.2 8.4-9.5 15.4-15.9 21.8-9.3 9.3-21.1 16.7-35.9 20.7-5.1 1.4-10.5 2.3-16.3 2.6-12.7 0.6-23.3-1.5-32.4-5-9.2-3.5-16.8-8.2-23.7-14-6.9 5.8-14.5 10.5-23.7 14-9.1 3.4-19.7 5.6-32.4 5-5.8-0.3-11.3-1.3-16.3-2.6-14.7-3.9-26.5-11.4-35.8-20.7-6.4-6.3-11.7-13.4-15.9-21.8-4.2-8.3-7.4-18-8.5-29.2-1.1-12.1 0.3-24.2 3.3-33.5 3.2-9.9 7.4-18.2 13-25.6-8.1-11-14.3-24.1-16.2-41.2-1-9.1-0.3-18.6 1.3-26.4 3.2-15.8 10.1-28.1 19-38.3 8.8-10.2 20.3-18.3 34.2-23.2 6.2-2.2 13-3.8 20.8-4.3 13.3-0.9 25 1.7 34.3 5.3 8.5 3.2 15.7 7.6 22.1 13 0.3 0.3 0.5 0.7 0.9 0.5 0.5-0.2 0.9-0.7 1.3-1.1 6.4-5.3 14-9.7 22.5-12.9 9-3.3 19.9-5.6 32.6-4.9 5.8 0.3 11.2 1.3 16.2 2.7 14.8 4 26.4 11.4 35.8 20.8 6.3 6.2 11.6 13.7 15.8 22 4.2 8.4 7.2 18 8.3 29.4 1.2 12.4-0.6 24.2-3.5 33.5-3.1 9.5-7.5 17.7-12.8 25 7.9 11 14.3 24 16.4 41.3zm-124.4-148.6c3.4 5.1 6.7 10.4 10.2 15.4 3.9-2.5 7.7-4.8 12.1-6.6 4.5-1.8 9.4-3 15.2-3.5 6.1-0.6 11.9 0.1 16.9 1.4 4.9 1.2 9.3 3.1 13.2 5.4 7.7 4.5 14 10.8 18.6 18.7 4.4 7.6 7.7 17.8 6.7 30.2-1 11.3-5.1 20-10.4 26.9-2.7 3.6-5.8 6.6-9.3 9.4-3.4 2.7-7.4 4.9-11.3 7.3-15.3 9.6-30.7 19.1-46 28.6 3.4 5.2 6.9 10.4 10.3 15.6h0.1c16.5-10.4 33-20.3 49.5-30.7 4.2-2.6 8.3-5.1 11.9-8.1 7.3-6 13.3-13.3 17.8-22.2 5-9.7 8.6-22.2 7.5-37.2-0.4-4.7-1.1-8.9-2.2-12.9-2.8-10.4-7.7-19.1-13.7-26.4-6.1-7.4-13.5-13.1-22.3-17.8-4.3-2.3-9.1-4.2-14.5-5.5-2.6-0.6-5.4-1.2-8.4-1.6-2.9-0.3-6.5-0.6-9.6-0.5-2.3 0.1-4.5 0.2-6.6 0.4-2.2 0.2-4.2 0.5-6.2 0.9-11.9 2.2-20.8 7.2-29.5 12.8zm6 90.7c0.7-0.4 1.5-0.9 1.9-1.6-0.1-0.4-0.3-0.7-0.5-1-3.1-4.8-6.4-9.6-9.6-14.4-1.9 1.2-3.8 2.4-5.7 3.7-5.5 3.7-11.1 7.3-16.6 11-18.5 12.3-37.1 24.3-55.5 36.6-1.9 1.2-3.8 2.4-5.4 3.8-5 4.3-9 9.6-11.4 16.3-1.6 4.4-2.7 9.9-2.3 15.9 0.7 11.2 5.5 19.3 11.5 25.3 6 6 14.4 10.7 25.6 11.3 12.4 0.6 20.3-4.1 27.5-9.1q-5.1-7.8-10.2-15.6c-4.1 2.9-7.9 5.9-14.3 6.4-2.1 0.1-4.2-0.1-6.2-0.6-3.7-0.9-6.4-2.7-8.9-4.9-2.4-2.2-4.3-5.1-5.4-8.4-1.2-3.7-1.3-8.4-0.2-12 1.1-3.4 3-6.5 5.2-8.6 2.3-2.2 5.3-4 8-5.8 24.1-16.2 48.3-32.3 72.5-48.3zm-23 123.7c-3.4-5.2-6.8-10.3-10.2-15.4-3.9 2.5-7.7 4.8-12.1 6.6-4.4 1.8-9.3 3-15.1 3.5-12.3 1-22.4-2.4-30.1-6.9-7.7-4.5-14-10.8-18.6-18.7-2.3-4-4.1-8.3-5.4-13.3-1.3-5-2-10.9-1.4-17 1-11.3 5.1-19.9 10.4-26.9 2.7-3.6 5.8-6.7 9.3-9.4 3.5-2.7 7.4-5 11.3-7.4 15.4-9.4 30.6-19.2 46-28.6-3.4-5.2-6.8-10.4-10.3-15.6-14.5 9-29.2 18.1-43.7 27.2-4.8 3.1-9.8 5.9-14.4 9.2-9 6.6-16.2 15.1-21.5 25.6-5 10.1-8.5 24-6.7 39.4 0.8 6.8 2.6 13.1 4.9 18.6 2.3 5.5 5.2 10.5 8.6 15 6.8 9 15.3 16.3 25.9 21.3 5.3 2.4 11.1 4.5 17.8 5.7 6.6 1.2 14.5 1.4 21.8 0.5 13.8-1.7 24-7.4 33.5-13.4zm-106.8-131.6c2.4 5.8 5.6 10.8 8.8 15.8 3.9-2.5 7.8-5 11.6-7.6 1.3-0.8 2.6-1.7 3.8-2.6-5-7.5-9.3-15.7-10.2-27.1-0.9-12.3 2.5-22.6 6.9-30.1 4.6-7.7 10.8-14 18.7-18.6 7.6-4.4 17.8-7.9 30.2-6.8 11.3 1.1 19.9 5.2 26.9 10.4 3.6 2.7 6.7 5.8 9.4 9.3 2.7 3.5 5 7.4 7.4 11.3 9.5 15.3 19.1 30.7 28.6 46 4.9-3.2 9.9-6.5 14.7-9.7 0.3-0.2 0.7-0.4 0.9-0.7-10.2-16.2-20.3-32.5-30.4-48.7-1.5-2.3-2.9-4.6-4.4-6.9-6-9-13.8-16.2-23.4-21.8q-7.1-4.1-15.9-6.6c-6.5-1.8-14.7-3-23.1-2.5-6.7 0.4-12.6 1.7-18 3.5-6 2-11.5 4.7-16.5 8-9.8 6.5-17.7 15-23.4 25.7-5.5 10.3-9.4 24.3-7.7 40.5 0.8 7.4 2.6 13.8 5.1 19.2zm79.6-39.6c1.2 1.6 2.3 3.4 3.5 5.1 5.8 8.6 11.6 17.2 17.3 25.8 5.4-3.3 10.8-6.8 16.1-10.2-6.7-10-13.2-20-19.9-30-3.3-5-7.6-8.8-12.9-12-5.8-3.4-13.9-5.8-23.2-5-7.3 0.7-13.3 3.2-18.1 6.5-5.5 3.8-9.9 8.7-13.1 15-3 6.1-5.1 14.5-3.6 23.6 1.3 8 4.7 13.9 8.7 19.4 5.2-3.4 10.5-6.7 15.6-10.2-2.3-3.5-4.8-6.6-5.9-11.3-1.1-5.1 0.1-10.6 2.1-14.2 2.9-5.3 8.1-9.4 15.6-10.2 2.6-0.3 5.3 0 7.7 0.7 4.4 1.3 7.7 3.8 10.1 7zm19.3 81.9c3.3 5.2 6.7 10.3 10.1 15.4 13-8.4 26-17.2 39.2-25.8 6.6-4.3 13.2-8.5 19.7-12.9 6.5-4.3 13.1-8.6 19.6-12.9 3.3-2.2 6.3-4.6 8.8-7.5 5-5.7 8.9-13.2 9.6-23 0.3-5.3-0.5-10.3-1.7-14.4-1.2-4.1-3.2-7.7-5.4-10.9-2.2-3.2-4.8-5.9-7.9-8.3-3-2.3-6.3-4.3-10.4-5.8-4.8-1.7-11.4-3-18-2.2-9.1 1.1-15.1 4.7-21.1 8.9 3.4 5.2 6.7 10.5 10.2 15.6 2.9-1.8 5.3-3.8 8.7-5.1 3.4-1.2 7.9-1.6 11.9-0.6 3.6 0.9 6.6 2.6 8.9 4.9 2.3 2.4 4.2 5 5.3 8.5 1.1 3.6 1.3 8.2 0.1 11.9-1.1 3.6-2.9 6.3-5.2 8.6-2.2 2.3-5.3 4-8 5.8-24.2 16.1-48.4 32.2-72.5 48.3-0.6 0.5-1.4 0.9-1.9 1.5zm75.1-63.2c1.6-1.7 2.9-4.2 2.6-7.4-0.2-2.9-1.5-5.2-3.3-6.8-1.8-1.6-4.1-2.8-7.5-2.6-4 0.3-5.9 2.7-8.7 4.2q5.5 8.4 11.1 16.8c2-1.4 4.3-2.4 5.8-4.2zm63 87.9c-1.9-13.8-7.4-24.1-13.7-33.5-2.6 1.7-5.2 3.5-7.8 5.2-1.9 1.3-3.8 2.5-5.7 3.8-0.7 0.4-1.3 0.8-1.9 1.3 5.1 7.5 9.2 15.7 10.2 27.1 1 12.2-2.4 22.4-6.9 30.1-4.6 7.7-10.8 14-18.7 18.6-7.6 4.4-17.8 7.9-30.2 6.8-11.2-1.1-20-5.1-26.9-10.4-3.6-2.8-6.7-5.8-9.4-9.3-2.7-3.5-5-7.4-7.4-11.3-9.5-15.4-19.1-30.7-28.6-46-5.2 3.4-10.4 6.8-15.6 10.3 10.5 16.9 21.2 33.9 31.7 50.8 1.5 2.4 3 4.8 4.7 7.1 3.3 4.5 7.1 8.6 11.4 12.2 4.2 3.5 8.9 6.8 14.2 9.3 5.2 2.4 11 4.7 17.6 5.9 6.5 1.2 14.3 1.7 21.8 0.8 13.8-1.7 24.7-6.8 33.6-13.5 9.1-6.8 16.2-15.3 21.3-25.9 3.8-7.8 6.6-17.3 6.9-28.5 0.1-3.8-0.1-7.6-0.6-10.9zm-121.6 1c6.2 9.2 12.3 18.7 18.5 27.9 0.9 1.4 1.7 2.7 2.7 4 3.8 5 8.7 9 14.8 11.8 5.9 2.7 14 4.5 22.5 3.1 3.7-0.6 7.2-1.7 10.2-3.1 9-4.2 15.6-11.1 19.6-20.2 1.3-3.1 2.3-6.6 2.8-10.5 0.5-4 0.3-8.5-0.4-12.3-1.4-7.4-4.7-12.9-8.4-18.1h-0.1c-5.1 3.4-10.3 6.8-15.5 10.2 2.3 3.5 4.8 6.6 5.9 11.3 1.2 5.3-0.1 10.7-2.1 14.2-3 5.3-8.2 9.5-15.6 10.3-2.6 0.3-5.4 0-7.7-0.7-4.4-1.3-7.7-3.8-10.2-7-1.2-1.6-2.3-3.4-3.5-5.1-5.8-8.6-11.5-17.3-17.3-25.8-5.4 3.4-10.8 6.8-16.2 10zm-44.9-102.1c-1.7-1.5-4-2.8-7.3-2.6-4.7 0.3-8.1 3.5-9.2 7.5-1.5 5.4 1.9 8.9 3.9 12 5.6-3.7 11.3-7.3 16.8-11.1-1.4-1.9-2.4-4.2-4.2-5.8zm-8.1 99.5c-0.6 0.3-1.4 0.8-2.1 1.3-0.7 0.4-1.4 0.9-2 1.3-2.5 1.7-4.6 4.8-4.3 8.9 0.2 2 0.8 3.6 1.7 5 1.8 2.6 4.7 4.6 8.8 4.5 4.2-0.2 6-2.6 9-4.2q-5.4-8.4-11.1-16.8zm101.1 19.4c1.5 0.8 3.4 1.3 5.4 1.2 2-0.2 3.6-0.8 5-1.7 2.6-1.7 4.7-4.6 4.5-8.7-0.2-4.2-2.5-6.2-4.2-9.1-5.6 3.6-11.2 7.4-16.8 11.1 1.7 2.6 3.2 5.6 6.1 7.2z"/>
</svg>