<svg version="1.1" id="layer" xmlns="http://www.w3.org/2000/svg" xmlns:xlink="http://www.w3.org/1999/xlink" x="0px" y="0px" viewBox="0 0 652 652" style="enable-background:new 0 0 652 652;" xml:space="preserve" height="100px" width="100px" transform="rotate(0) scale(1, 1)">
<style type="text/css">.st0 { fill: #2f2f2f; }.st1 { fill-rule: evenodd; clip-rule: evenodd; fill: #2f2f2f; }</style>
<polygon class="st0" points="503.5,325.6 456.8,251.8 489.5,251.8 519.8,302.8 550.8,251.8 582.4,251.8 535.8,325.8 586.1,405.2 &#10;&#9;552.7,405.2 519.2,350.1 485.4,405.2 453.2,405.2 "/>
<path class="st0" d="M328,251.8h31l34.6,112.9h0.4l34.6-112.9H457l-50.8,154h-28L328,251.8z M597.7,405.2h28.6V251.8h-28.6V405.2z"/>
<path class="st1" d="M275.7,325.6C275.7,325.6,275.7,325.6,275.7,325.6c5.3-7.3,9.7-15.5,12.8-25c2.9-9.3,4.7-21.1,3.5-33.5&#10;&#9;c-1.1-11.4-4.1-21-8.3-29.4c-4.2-8.3-9.5-15.8-15.8-22c-9.4-9.4-21-16.8-35.8-20.8c-5-1.4-10.4-2.4-16.2-2.7&#10;&#9;c-12.7-0.7-23.6,1.6-32.6,4.9c-8.5,3.2-16.1,7.6-22.5,12.9c-0.4,0.4-0.8,0.9-1.3,1.1c-0.4,0.2-0.6-0.2-0.9-0.5&#10;&#9;c-6.4-5.4-13.6-9.8-22.1-13c-9.3-3.6-21-6.2-34.3-5.3c-7.8,0.5-14.6,2.1-20.8,4.3c-13.9,4.9-25.4,13-34.2,23.2&#10;&#9;c-8.9,10.2-15.8,22.5-19,38.3c-1.6,7.8-2.3,17.3-1.3,26.4c1.9,17.1,8.1,30.2,16.2,41.2c-5.6,7.4-9.8,15.7-13,25.6&#10;&#9;c-3,9.3-4.4,21.4-3.3,33.5c1.1,11.2,4.3,20.9,8.5,29.2c4.2,8.4,9.5,15.5,15.9,21.8c9.3,9.3,21.1,16.8,35.8,20.7&#10;&#9;c5,1.3,10.5,2.3,16.3,2.6c12.7,0.6,23.3-1.6,32.4-5c9.2-3.5,16.8-8.2,23.7-14c6.9,5.8,14.5,10.5,23.7,14c9.1,3.5,19.7,5.6,32.4,5&#10;&#9;c5.8-0.3,11.2-1.2,16.3-2.6c14.8-4,26.6-11.4,35.9-20.7c6.4-6.4,11.7-13.4,15.9-21.8c4.1-8.4,7.4-18,8.5-29.2&#10;&#9;c0.6-5.8,0.6-12.2,0-17.9C290,349.6,283.6,336.6,275.7,325.6 M197.2,205.5c2-0.4,4-0.7,6.2-0.9c2.1-0.2,4.3-0.3,6.6-0.4&#10;&#9;c3.1-0.1,6.7,0.2,9.6,0.5c3,0.4,5.8,1,8.4,1.6c5.4,1.3,10.2,3.2,14.5,5.5c8.8,4.7,16.2,10.4,22.3,17.8c6,7.3,10.9,16,13.7,26.4&#10;&#9;c1.1,4,1.8,8.2,2.2,12.9c1.1,15-2.5,27.5-7.5,37.2c-4.5,8.9-10.5,16.2-17.8,22.2c-3.6,3-7.7,5.5-11.9,8.1&#10;&#9;c-16.5,10.4-33,20.3-49.5,30.7c0,0-0.1,0-0.1,0c-3.4-5.2-6.9-10.4-10.3-15.6c15.3-9.5,30.7-19,46-28.6c3.9-2.4,7.9-4.6,11.3-7.3&#10;&#9;c3.5-2.8,6.6-5.8,9.3-9.4c5.3-6.9,9.4-15.6,10.4-26.9c1-12.4-2.3-22.6-6.7-30.2c-4.6-7.9-10.9-14.2-18.6-18.7&#10;&#9;c-3.9-2.3-8.3-4.2-13.2-5.4c-5-1.3-10.8-2-16.9-1.4c-5.8,0.5-10.7,1.7-15.2,3.5c-4.4,1.8-8.2,4.1-12.1,6.6&#10;&#9;c-3.5-5-6.8-10.3-10.2-15.4C176.4,212.7,185.3,207.7,197.2,205.5 M101.2,357.3c-2.7,1.8-5.7,3.6-8,5.8c-2.2,2.1-4.1,5.2-5.2,8.6&#10;&#9;c-1.1,3.6-1,8.3,0.2,12c1.1,3.3,3,6.2,5.4,8.4c2.5,2.2,5.2,4,8.9,4.9c2,0.5,4.1,0.7,6.2,0.6c6.4-0.5,10.2-3.5,14.3-6.4&#10;&#9;c3.4,5.2,6.8,10.4,10.2,15.6c-7.2,5-15.1,9.7-27.5,9.1c-11.2-0.6-19.6-5.3-25.6-11.3c-6-6-10.8-14.1-11.5-25.3&#10;&#9;c-0.4-6,0.7-11.5,2.3-15.9c2.4-6.7,6.4-12,11.4-16.3c1.6-1.4,3.5-2.6,5.4-3.8c18.4-12.3,37-24.3,55.5-36.6c5.5-3.7,11.1-7.3,16.6-11&#10;&#9;c1.9-1.3,3.8-2.5,5.7-3.7c3.2,4.8,6.5,9.6,9.6,14.4c0.2,0.3,0.4,0.6,0.5,1c-0.4,0.7-1.2,1.2-1.9,1.6&#10;&#9;C149.5,325,125.3,341.1,101.2,357.3 M117.4,383.3c-3,1.6-4.8,4-9,4.2c-4.1,0.1-7-1.9-8.8-4.5c-0.9-1.4-1.5-3-1.7-5&#10;&#9;c-0.3-4.1,1.8-7.2,4.3-8.9c0.6-0.4,1.3-0.9,2-1.3c0.7-0.5,1.5-1,2.1-1.3C110.1,372.1,113.8,377.7,117.4,383.3 M113.4,254.5&#10;&#9;c-2.4-0.7-5.1-1-7.7-0.7c-7.5,0.8-12.7,4.9-15.6,10.2c-2,3.6-3.2,9.1-2.1,14.2c1.1,4.7,3.6,7.8,5.9,11.3&#10;&#9;c-5.1,3.5-10.4,6.8-15.6,10.2c-4-5.5-7.4-11.4-8.7-19.4c-1.5-9.1,0.6-17.5,3.6-23.6c3.2-6.3,7.6-11.2,13.1-15&#10;&#9;c4.8-3.3,10.8-5.8,18.1-6.5c9.3-0.8,17.4,1.6,23.2,5c5.3,3.2,9.6,7,12.9,12c6.7,10,13.2,20,19.9,30c-5.3,3.4-10.7,6.9-16.1,10.2&#10;&#9;c-5.7-8.6-11.5-17.2-17.3-25.8c-1.2-1.7-2.3-3.5-3.5-5.1C121.1,258.3,117.8,255.8,113.4,254.5 M118.6,272.8&#10;&#9;c-5.5,3.8-11.2,7.4-16.8,11.1c-2-3.1-5.4-6.6-3.9-12c1.1-4,4.5-7.2,9.2-7.5c3.3-0.2,5.6,1.1,7.3,2.6&#10;&#9;C116.2,268.6,117.2,270.9,118.6,272.8 M144.7,341.9c24.1-16.1,48.3-32.2,72.5-48.3c2.7-1.8,5.8-3.5,8-5.8c2.3-2.3,4.1-5,5.2-8.6&#10;&#9;c1.2-3.7,1-8.3-0.1-11.9c-1.1-3.5-3-6.1-5.3-8.5c-2.3-2.3-5.3-4-8.9-4.9c-4-1-8.5-0.6-11.9,0.6c-3.4,1.3-5.8,3.3-8.7,5.1&#10;&#9;c-3.5-5.1-6.8-10.4-10.2-15.6c6-4.2,12-7.8,21.1-8.9c6.6-0.8,13.2,0.5,18,2.2c4.1,1.5,7.4,3.5,10.4,5.8c3.1,2.4,5.7,5.1,7.9,8.3&#10;&#9;c2.2,3.2,4.2,6.8,5.4,10.9c1.2,4.1,2,9.1,1.7,14.4c-0.7,9.8-4.6,17.3-9.6,23c-2.5,2.9-5.5,5.3-8.8,7.5c-6.5,4.3-13.1,8.6-19.6,12.9&#10;&#9;c-6.5,4.4-13.1,8.6-19.7,12.9c-13.2,8.6-26.2,17.4-39.2,25.8c-3.4-5.1-6.8-10.2-10.1-15.4C143.3,342.8,144.1,342.4,144.7,341.9&#10;&#9; M212.1,284.4c-3.7-5.6-7.4-11.2-11.1-16.8c2.8-1.5,4.7-3.9,8.7-4.2c3.4-0.2,5.7,1,7.5,2.6c1.8,1.6,3.1,3.9,3.3,6.8&#10;&#9;c0.3,3.2-1,5.7-2.6,7.4C216.4,282,214.1,283,212.1,284.4 M175.5,359.1c5.8,8.5,11.5,17.2,17.3,25.8c1.2,1.7,2.3,3.5,3.5,5.1&#10;&#9;c2.5,3.2,5.8,5.7,10.2,7c2.3,0.7,5.1,1,7.7,0.7c7.4-0.8,12.6-5,15.6-10.3c2-3.5,3.3-8.9,2.1-14.2c-1.1-4.7-3.6-7.8-5.9-11.3&#10;&#9;c5.2-3.4,10.4-6.8,15.5-10.2h0.1c3.7,5.2,7,10.7,8.4,18.1c0.7,3.8,0.9,8.3,0.4,12.3c-0.5,3.9-1.5,7.4-2.8,10.5&#10;&#9;c-4,9.1-10.6,16-19.6,20.2c-3,1.4-6.5,2.5-10.2,3.1c-8.5,1.4-16.6-0.4-22.5-3.1c-6.1-2.8-11-6.8-14.8-11.8c-1-1.3-1.8-2.6-2.7-4&#10;&#9;c-6.2-9.2-12.3-18.7-18.5-27.9C164.7,365.9,170.1,362.5,175.5,359.1 M201.3,378.7c5.6-3.7,11.2-7.5,16.8-11.1c1.7,2.9,4,4.9,4.2,9.1&#10;&#9;c0.2,4.1-1.9,7-4.5,8.7c-1.4,0.9-3,1.5-5,1.7c-2,0.1-3.9-0.4-5.4-1.2C204.5,384.3,203,381.3,201.3,378.7 M38.8,281.9&#10;&#9;c-1.7-16.2,2.2-30.2,7.7-40.5c5.7-10.7,13.6-19.2,23.4-25.7c5-3.3,10.5-6,16.5-8c5.4-1.8,11.3-3.1,18-3.5c8.4-0.5,16.6,0.7,23.1,2.5&#10;&#9;c5.9,1.7,11.2,3.9,15.9,6.6c9.6,5.6,17.4,12.8,23.4,21.8c1.5,2.3,2.9,4.6,4.4,6.9c10.1,16.2,20.2,32.5,30.4,48.7&#10;&#9;c-0.2,0.3-0.6,0.5-0.9,0.7c-4.8,3.2-9.8,6.5-14.7,9.7c-9.5-15.3-19.1-30.7-28.6-46c-2.4-3.9-4.7-7.8-7.4-11.3&#10;&#9;c-2.7-3.5-5.8-6.6-9.4-9.3c-7-5.2-15.6-9.3-26.9-10.4c-12.4-1.1-22.6,2.4-30.2,6.8c-7.9,4.6-14.1,10.9-18.7,18.6&#10;&#9;c-4.4,7.5-7.8,17.8-6.9,30.1c0.9,11.4,5.2,19.6,10.2,27.1c-1.2,0.9-2.5,1.8-3.8,2.6c-3.8,2.6-7.7,5.1-11.6,7.6&#10;&#9;c-3.2-5-6.4-10-8.8-15.8C41.4,295.7,39.6,289.3,38.8,281.9 M117.2,446.1c-7.3,0.9-15.2,0.7-21.8-0.5c-6.7-1.2-12.5-3.3-17.8-5.7&#10;&#9;c-10.6-5-19.1-12.3-25.9-21.3c-3.4-4.5-6.3-9.5-8.6-15c-2.3-5.5-4.1-11.8-4.9-18.6c-1.8-15.4,1.7-29.3,6.7-39.4&#10;&#9;c5.3-10.5,12.5-19,21.5-25.6c4.6-3.3,9.6-6.1,14.4-9.2c14.5-9.1,29.2-18.2,43.7-27.2c3.5,5.2,6.9,10.4,10.3,15.6&#10;&#9;c-15.4,9.4-30.6,19.2-46,28.6c-3.9,2.4-7.8,4.7-11.3,7.4c-3.5,2.7-6.6,5.8-9.3,9.4c-5.3,7-9.4,15.6-10.4,26.9&#10;&#9;c-0.6,6.1,0.1,12,1.4,17c1.3,5,3.1,9.3,5.4,13.3c4.6,7.9,10.9,14.2,18.6,18.7c7.7,4.5,17.8,7.9,30.1,6.9c5.8-0.5,10.7-1.7,15.1-3.5&#10;&#9;c4.4-1.8,8.2-4.1,12.1-6.6c3.4,5.1,6.8,10.2,10.2,15.4C141.2,438.7,131,444.4,117.2,446.1 M281.5,379c-0.3,11.2-3.1,20.7-6.9,28.5&#10;&#9;c-5.1,10.6-12.2,19.1-21.3,25.9c-8.9,6.7-19.8,11.8-33.6,13.5c-7.5,0.9-15.3,0.4-21.8-0.8c-6.6-1.2-12.4-3.5-17.6-5.9&#10;&#9;c-5.3-2.5-10-5.8-14.2-9.3c-4.3-3.6-8.1-7.7-11.4-12.2c-1.7-2.3-3.2-4.7-4.7-7.1c-10.5-16.9-21.2-33.9-31.7-50.8&#10;&#9;c5.2-3.5,10.4-6.9,15.6-10.3c9.5,15.3,19.1,30.6,28.6,46c2.4,3.9,4.7,7.8,7.4,11.3c2.7,3.5,5.8,6.5,9.4,9.3&#10;&#9;c6.9,5.3,15.7,9.3,26.9,10.4c12.4,1.1,22.6-2.4,30.2-6.8c7.9-4.6,14.1-10.9,18.7-18.6c4.5-7.7,7.9-17.9,6.9-30.1&#10;&#9;c-1-11.4-5.1-19.6-10.2-27.1c0.6-0.5,1.2-0.9,1.9-1.3c1.9-1.3,3.8-2.5,5.7-3.8c2.6-1.7,5.2-3.5,7.8-5.2c6.3,9.4,11.8,19.7,13.7,33.5&#10;&#9;C281.4,371.4,281.6,375.2,281.5,379"/>
</svg>