<?xml version="1.0" encoding="utf-8"?>
<!-- Generator: Adobe Illustrator 19.2.1, SVG Export Plug-In . SVG Version: 6.00 Build 0)  -->
<svg version="1.1" id="layer" xmlns="http://www.w3.org/2000/svg" xmlns:xlink="http://www.w3.org/1999/xlink" x="0px" y="0px"
	 viewBox="0 0 652 652" style="enable-background:new 0 0 652 652;" xml:space="preserve">
<style type="text/css">
	.st0{filter:url(#Adobe_OpacityMaskFilter);}
	.st1{fill:#FFFFFF;}
	.st2{mask:url(#b_1_);fill:#1A1919;}
</style>
<g>
	<defs>
		<filter id="Adobe_OpacityMaskFilter" filterUnits="userSpaceOnUse" x="25.9" y="294.1" width="600" height="61.7">
			<feColorMatrix  type="matrix" values="1 0 0 0 0  0 1 0 0 0  0 0 1 0 0  0 0 0 1 0"/>
		</filter>
	</defs>
	<mask maskUnits="userSpaceOnUse" x="25.9" y="294.1" width="600" height="61.7" id="b_1_">
		<g class="st0">
			<path id="a_1_" class="st1" d="M26,294.1h599.9v61.7H26V294.1z"/>
		</g>
	</mask>
	<path class="st2" d="M40.7,311.6c0-4,4.2-6.7,9.6-6.7c5.8,0,9.9,3,10.6,8h13.3c-1.2-11.7-11-18.4-23.9-18.4c-12.6,0-23,7.5-23,18.3
		c0,9,5.9,14.7,18.5,17.3l5.9,1.3c6.5,1.3,10.1,3.3,10.1,7.2c0,4.5-4.5,6.9-10.4,6.9c-6.4,0-11.3-2.9-12.1-9.3H25.9
		c1.2,13.4,11.8,19.6,25.5,19.6c12.6,0,23.9-6.4,23.9-18.5c0-10.3-7.7-15.6-19.6-18l-6.6-1.4C43.3,316.7,40.7,315.2,40.7,311.6z
		 M110.4,354.8h12.8v-27.2c0-11.7-6.4-17.4-15.9-17.4c-5.4,0-10,2.1-12.8,5.7v-21.7H81.6v60.7h12.8v-23.3c0-7.2,3.8-10.5,8.3-10.5
		c4.8,0,7.7,3.2,7.7,8.8V354.8L110.4,354.8z M158,337.5c0,6.1-4.3,9.1-9.4,9.1c-4,0-7.1-1.8-7.1-5.1c0-4.2,5-5.5,16.5-6.9V337.5z
		 M170.8,354.8c-0.3-5.3-0.3-7.8-0.3-9.3l0.1-18.5c0.1-12.3-7.3-16.9-19.1-16.9c-11,0-19.4,5.8-20.8,15.3h12c0.8-4,3.6-6.2,8.3-6.2
		c4.6,0,7.2,1.9,7.2,6.6v0.6l-10,1.6c-11.5,1.9-18.9,5.1-18.9,14.2c0,8.9,7.9,13.7,16.2,13.7c6.3,0,10.8-2.4,13.7-5.9l0.2,5
		C159.1,354.8,170.8,354.8,170.8,354.8z M227,354.8l13.8-43.7h-12.2l-8,28.4l-7.8-28.4h-11l-7.8,28.6l-8.1-28.6h-12.7l13.9,43.7
		h12.2l7.8-27.6l7.8,27.6H227L227,354.8z M260,325c0-11.5,6.8-18.8,15.4-18.8c7.1,0,12.1,3.8,13.7,9.7h13.7
		c-1.8-12.9-13.1-21.4-27.4-21.4c-15.2,0-29.7,11.2-29.7,30.5c0,19.4,14,30.8,29.6,30.8c14.3,0,25.5-8.4,27.6-21.4h-13.7
		c-1.9,6.1-6.8,9.7-13.7,9.7C266.9,344.1,260,336.6,260,325L260,325z M342.1,332.7c0,7.8-4.2,12.6-10.5,12.6
		c-6.2,0-10.5-5-10.5-12.6c0-7.3,4.2-12.2,10.5-12.2C337.8,320.5,342.1,325.4,342.1,332.7z M355.3,332.7c0-14-10.6-22.7-23.7-22.7
		c-13,0-23.7,8.8-23.7,22.7c0,14.2,10.5,23.1,23.7,23.1C344.8,355.8,355.3,346.8,355.3,332.7z M390,354.8h12.8v-27.2
		c0-11.7-6.4-17.4-15.9-17.4c-5.6,0-10.5,2.3-13.2,6.3v-5.3h-12.4v43.7h12.8v-23.3c0-7.2,3.8-10.5,8.3-10.5c4.8,0,7.7,3.2,7.7,8.8
		V354.8z M427.3,354.9c4.1,0,6.6,0,9.5-0.2v-9.5h-4.9c-3.5,0-4.8-0.8-4.8-5.2v-19.5h9.7v-9.4h-9.7v-10.9h-12.6v10.9h-7.1v9.4h7.1
		v22.4C414.5,352.5,419.3,354.9,427.3,354.9L427.3,354.9z M467,322.6c1.3,0,2.3,0,4.3,0.3v-11.8c-0.8-0.2-2-0.3-3.1-0.3
		c-4.1,0-6.6,1.1-9.1,3.1c-1.2,1.1-2.2,2.3-3,3.7v-6.5h-12.4v43.7h12.8v-22.2C456.4,324.4,462.2,322.6,467,322.6L467,322.6z
		 M502.4,337.5c0,6.1-4.3,9.1-9.4,9.1c-4,0-7.1-1.8-7.1-5.1c0-4.2,5-5.5,16.5-6.9L502.4,337.5L502.4,337.5z M515.2,354.8
		c-0.3-5.3-0.3-7.8-0.3-9.3L515,327c0.1-12.3-7.3-16.9-19.1-16.9c-11,0-19.4,5.8-20.8,15.3h12c0.8-4,3.6-6.2,8.3-6.2
		c4.6,0,7.2,1.9,7.2,6.6v0.6l-10,1.6c-11.5,1.9-18.9,5.1-18.9,14.2c0,8.9,7.9,13.7,16.2,13.7c6.3,0,10.8-2.4,13.7-5.9l0.2,5H515.2
		L515.2,354.8z M534.5,332.7c0-7.2,4.1-12.2,10-12.2c4.4,0,8,2.6,9,6.7h12.6c-1.3-10.5-10.3-17.2-21.7-17.2
		c-12.6,0-23.2,9-23.2,22.7c0,14.1,10.3,23.1,23.1,23.1c11,0,20.1-6.5,21.7-17.3h-12.7c-1.2,4.4-4.6,6.8-8.9,6.8
		C538.8,345.4,534.5,340.2,534.5,332.7z M589.1,354.9c4.1,0,6.6,0,9.5-0.2v-9.5h-4.9c-3.5,0-4.8-0.8-4.8-5.2v-19.5h9.7v-9.4h-9.7
		v-10.9h-12.6v10.9h-7.1v9.4h7.1v22.4C576.3,352.5,581.1,354.9,589.1,354.9L589.1,354.9z M617.5,315h-2.4v-2.7h2.4
		c1,0,1.6,0.5,1.6,1.4C619.1,314.5,618.6,315,617.5,315L617.5,315z M619.1,316.2L619.1,316.2c1-0.3,1.9-1.2,1.9-2.6
		c0-1.5-1-2.8-3.2-2.8h-4.4v9.1h1.8v-3.5h1.8c0.2,0,0.3,0,0.4,0.2l1.8,3.3h2l-1.8-3.1C619.2,316.6,619.2,316.4,619.1,316.2z
		 M624.5,315.5c0,4.3-3.4,7.8-7.6,7.8c-4.2,0-7.6-3.5-7.6-7.8c0-4.3,3.4-7.8,7.6-7.8C621.1,307.7,624.5,311.2,624.5,315.5z
		 M625.9,315.5c0-5.1-4-9.2-8.9-9.2c-4.9,0-8.9,4.1-8.9,9.2c0,5.1,4,9.2,8.9,9.2C621.9,324.7,625.9,320.6,625.9,315.5z"/>
</g>
</svg>
